<svg id="inst" xmlns="http://www.w3.org/2000/svg" width="510" height="510" viewBox="0 0 510 510"><path d="M459 0H51C23 0 0 23 0 51v408c0 28 23 51 51 51h408c28 0 51-23 51-51V51c0-28-23-51-51-51zM255 153c56.1 0 102 45.9 102 102s-45.9 102-102 102-102-45.9-102-102 45.9-102 102-102zM63.7 459c-7.6 0-12.7-5.1-12.7-12.8V229.6h53.5c-2.5 7.7-2.5 17.8-2.5 25.5 0 84.2 68.8 153 153 153s153-68.8 153-153c0-7.7 0-17.9-2.5-25.5H459v216.8c0 7.6-5.1 12.7-12.8 12.7H63.9zM459 114.7c0 7.7-5.1 12.8-12.8 12.8h-51c-7.6 0-12.7-5.1-12.7-12.8v-51c0-7.6 5.1-12.7 12.8-12.7h51c7.6 0 12.7 5.1 12.7 12.8v51z"/></svg>